<mxfile host="app.diagrams.net" modified="2024-02-11T19:50:33.911Z" agent="Mozilla/5.0 (Windows NT 10.0; Win64; x64; rv:122.0) Gecko/20100101 Firefox/122.0" etag="kG_LRgdfK5FoL2tzoc-o" version="23.1.2" type="device">
  <diagram name="Page-1" id="AWfotYuxL60iJ39MJU55">
    <mxGraphModel dx="1434" dy="746" grid="1" gridSize="10" guides="1" tooltips="1" connect="1" arrows="1" fold="1" page="1" pageScale="1" pageWidth="1169" pageHeight="827" math="0" shadow="0">
      <root>
        <mxCell id="0" />
        <mxCell id="1" parent="0" />
        <mxCell id="KYEBPbytc8NpeljbwfnL-1" value="" style="rounded=0;whiteSpace=wrap;html=1;" vertex="1" parent="1">
          <mxGeometry x="10" y="10" width="180" height="60" as="geometry" />
        </mxCell>
        <mxCell id="KfcNOS4kfVk2N-4z_1Hx-177" value="Workflow" style="text;html=1;strokeColor=none;fillColor=none;align=left;verticalAlign=middle;whiteSpace=wrap;rounded=0;fontFamily=Roboto;fontSource=https%3A%2F%2Ffonts.googleapis.com%2Fcss%3Ffamily%3DRoboto;" parent="1" vertex="1">
          <mxGeometry x="52.5" y="40" width="127.5" height="30" as="geometry" />
        </mxCell>
        <mxCell id="KfcNOS4kfVk2N-4z_1Hx-13" value="ES: Simulink Modelling" style="swimlane;whiteSpace=wrap;html=1;fontFamily=Roboto;fontSource=https%3A%2F%2Ffonts.googleapis.com%2Fcss%3Ffamily%3DRoboto;fontStyle=0;fillColor=#dae8fc;strokeColor=#6c8ebf;" parent="1" vertex="1">
          <mxGeometry x="870" y="130" width="280" height="110" as="geometry" />
        </mxCell>
        <mxCell id="KfcNOS4kfVk2N-4z_1Hx-11" value="&lt;div&gt;Model development&lt;/div&gt;&lt;div&gt;(ie: IMU + GPS fusion)&lt;br&gt;&lt;/div&gt;" style="rounded=0;whiteSpace=wrap;html=1;fontFamily=Roboto;fontSource=https%3A%2F%2Ffonts.googleapis.com%2Fcss%3Ffamily%3DRoboto;fillColor=#f5f5f5;fontColor=#333333;strokeColor=#666666;" parent="KfcNOS4kfVk2N-4z_1Hx-13" vertex="1">
          <mxGeometry x="10" y="40" width="120" height="60" as="geometry" />
        </mxCell>
        <mxCell id="KfcNOS4kfVk2N-4z_1Hx-3" value="&lt;div&gt;ES Simulink library development&lt;br&gt;&lt;/div&gt;&amp;nbsp;(ie: 9-DOF fusion)" style="rounded=0;whiteSpace=wrap;html=1;fontFamily=Roboto;fontSource=https%3A%2F%2Ffonts.googleapis.com%2Fcss%3Ffamily%3DRoboto;fillColor=#f8cecc;strokeColor=#b85450;gradientColor=#ea6b66;" parent="KfcNOS4kfVk2N-4z_1Hx-13" vertex="1">
          <mxGeometry x="150" y="40" width="120" height="60" as="geometry" />
        </mxCell>
        <mxCell id="KfcNOS4kfVk2N-4z_1Hx-12" style="edgeStyle=orthogonalEdgeStyle;rounded=1;orthogonalLoop=1;jettySize=auto;html=1;exitX=0;exitY=0.5;exitDx=0;exitDy=0;entryX=1;entryY=0.5;entryDx=0;entryDy=0;strokeColor=#6666FF;fillColor=#e1d5e7;curved=0;fontFamily=Roboto;fontSource=https%3A%2F%2Ffonts.googleapis.com%2Fcss%3Ffamily%3DRoboto;" parent="KfcNOS4kfVk2N-4z_1Hx-13" source="KfcNOS4kfVk2N-4z_1Hx-3" target="KfcNOS4kfVk2N-4z_1Hx-11" edge="1">
          <mxGeometry relative="1" as="geometry" />
        </mxCell>
        <mxCell id="KfcNOS4kfVk2N-4z_1Hx-5" value="Vehicle Dynamics (VD) Simulink" style="swimlane;whiteSpace=wrap;html=1;fontFamily=Roboto;fontSource=https%3A%2F%2Ffonts.googleapis.com%2Fcss%3Ffamily%3DRoboto;fontStyle=0;fillColor=#ffe6cc;strokeColor=#d79b00;" parent="1" vertex="1">
          <mxGeometry x="470" y="330" width="680" height="110" as="geometry" />
        </mxCell>
        <mxCell id="KfcNOS4kfVk2N-4z_1Hx-9" value="&lt;div&gt;Controls development&lt;br&gt;&lt;/div&gt;&lt;div&gt;(ie: traction control)&lt;br&gt;&lt;/div&gt;" style="rounded=0;whiteSpace=wrap;html=1;fontFamily=Roboto;fontSource=https%3A%2F%2Ffonts.googleapis.com%2Fcss%3Ffamily%3DRoboto;fillColor=#f5f5f5;fontColor=#333333;strokeColor=#666666;" parent="KfcNOS4kfVk2N-4z_1Hx-5" vertex="1">
          <mxGeometry x="10" y="40" width="120" height="60" as="geometry" />
        </mxCell>
        <mxCell id="KfcNOS4kfVk2N-4z_1Hx-166" style="edgeStyle=orthogonalEdgeStyle;rounded=1;orthogonalLoop=1;jettySize=auto;html=1;exitX=0;exitY=0.5;exitDx=0;exitDy=0;entryX=1;entryY=0.5;entryDx=0;entryDy=0;curved=0;fillColor=#f5f5f5;strokeColor=#6666FF;" parent="KfcNOS4kfVk2N-4z_1Hx-5" source="KfcNOS4kfVk2N-4z_1Hx-8" target="KfcNOS4kfVk2N-4z_1Hx-165" edge="1">
          <mxGeometry relative="1" as="geometry" />
        </mxCell>
        <mxCell id="KfcNOS4kfVk2N-4z_1Hx-8" value="&lt;div&gt;VD Simulink library development&lt;/div&gt;&lt;div&gt;(ie: wheel slip model)&lt;br&gt;&lt;/div&gt;" style="rounded=0;whiteSpace=wrap;html=1;fontFamily=Roboto;fontSource=https%3A%2F%2Ffonts.googleapis.com%2Fcss%3Ffamily%3DRoboto;fillColor=#f8cecc;strokeColor=#b85450;gradientColor=#ea6b66;" parent="KfcNOS4kfVk2N-4z_1Hx-5" vertex="1">
          <mxGeometry x="550" y="40" width="120" height="60" as="geometry" />
        </mxCell>
        <mxCell id="KfcNOS4kfVk2N-4z_1Hx-167" style="edgeStyle=orthogonalEdgeStyle;rounded=1;orthogonalLoop=1;jettySize=auto;html=1;exitX=0;exitY=0.5;exitDx=0;exitDy=0;entryX=1;entryY=0.5;entryDx=0;entryDy=0;curved=0;fillColor=#f5f5f5;strokeColor=#6666FF;" parent="KfcNOS4kfVk2N-4z_1Hx-5" source="KfcNOS4kfVk2N-4z_1Hx-165" target="KfcNOS4kfVk2N-4z_1Hx-9" edge="1">
          <mxGeometry relative="1" as="geometry" />
        </mxCell>
        <mxCell id="KfcNOS4kfVk2N-4z_1Hx-165" value="VD WORKFLOW" style="rounded=0;whiteSpace=wrap;html=1;fontFamily=Roboto;fontSource=https%3A%2F%2Ffonts.googleapis.com%2Fcss%3Ffamily%3DRoboto;fillColor=#647687;fontColor=#ffffff;strokeColor=#314354;" parent="KfcNOS4kfVk2N-4z_1Hx-5" vertex="1">
          <mxGeometry x="170" y="40" width="360" height="60" as="geometry" />
        </mxCell>
        <mxCell id="KfcNOS4kfVk2N-4z_1Hx-20" value="Hardware &amp;amp; Electronics (HE)" style="swimlane;whiteSpace=wrap;html=1;fontFamily=Roboto;fontSource=https%3A%2F%2Ffonts.googleapis.com%2Fcss%3Ffamily%3DRoboto;fontStyle=0;fillColor=#d5e8d4;strokeColor=#82b366;" parent="1" vertex="1">
          <mxGeometry x="730" y="570" width="420" height="110" as="geometry" />
        </mxCell>
        <mxCell id="KfcNOS4kfVk2N-4z_1Hx-22" style="edgeStyle=orthogonalEdgeStyle;rounded=0;orthogonalLoop=1;jettySize=auto;html=1;exitX=0;exitY=0.5;exitDx=0;exitDy=0;entryX=1;entryY=0.5;entryDx=0;entryDy=0;" parent="KfcNOS4kfVk2N-4z_1Hx-20" edge="1">
          <mxGeometry relative="1" as="geometry">
            <mxPoint x="170" y="110" as="sourcePoint" />
          </mxGeometry>
        </mxCell>
        <mxCell id="KfcNOS4kfVk2N-4z_1Hx-24" style="edgeStyle=orthogonalEdgeStyle;rounded=0;orthogonalLoop=1;jettySize=auto;html=1;exitX=0;exitY=0.5;exitDx=0;exitDy=0;entryX=1;entryY=0.5;entryDx=0;entryDy=0;" parent="KfcNOS4kfVk2N-4z_1Hx-20" edge="1">
          <mxGeometry relative="1" as="geometry">
            <mxPoint x="170" y="110" as="sourcePoint" />
          </mxGeometry>
        </mxCell>
        <mxCell id="KfcNOS4kfVk2N-4z_1Hx-82" value="HE standard designs (ie: level shifter)" style="rounded=0;whiteSpace=wrap;html=1;fontFamily=Roboto;fontSource=https%3A%2F%2Ffonts.googleapis.com%2Fcss%3Ffamily%3DRoboto;fillColor=#f8cecc;gradientColor=#ea6b66;strokeColor=#b85450;" parent="KfcNOS4kfVk2N-4z_1Hx-20" vertex="1">
          <mxGeometry x="290" y="40" width="120" height="60" as="geometry" />
        </mxCell>
        <mxCell id="KfcNOS4kfVk2N-4z_1Hx-156" value="HE WORKFLOW" style="rounded=0;whiteSpace=wrap;html=1;fontFamily=Roboto;fontSource=https%3A%2F%2Ffonts.googleapis.com%2Fcss%3Ffamily%3DRoboto;fillColor=#647687;fontColor=#ffffff;strokeColor=#314354;" parent="KfcNOS4kfVk2N-4z_1Hx-20" vertex="1">
          <mxGeometry x="150" y="40" width="120" height="60" as="geometry" />
        </mxCell>
        <mxCell id="KfcNOS4kfVk2N-4z_1Hx-157" style="edgeStyle=orthogonalEdgeStyle;rounded=1;orthogonalLoop=1;jettySize=auto;html=1;exitX=0;exitY=0.5;exitDx=0;exitDy=0;entryX=1;entryY=0.5;entryDx=0;entryDy=0;curved=0;fillColor=#f5f5f5;strokeColor=#666666;" parent="KfcNOS4kfVk2N-4z_1Hx-20" source="KfcNOS4kfVk2N-4z_1Hx-82" target="KfcNOS4kfVk2N-4z_1Hx-156" edge="1">
          <mxGeometry relative="1" as="geometry" />
        </mxCell>
        <mxCell id="KfcNOS4kfVk2N-4z_1Hx-6" value="&lt;div&gt;PCB production &amp;amp; assembly&lt;br&gt;&lt;/div&gt;" style="rounded=0;whiteSpace=wrap;html=1;fontFamily=Roboto;fontSource=https%3A%2F%2Ffonts.googleapis.com%2Fcss%3Ffamily%3DRoboto;fillColor=#f5f5f5;fontColor=#333333;strokeColor=#666666;" parent="KfcNOS4kfVk2N-4z_1Hx-20" vertex="1">
          <mxGeometry x="10" y="40" width="120" height="60" as="geometry" />
        </mxCell>
        <mxCell id="KfcNOS4kfVk2N-4z_1Hx-158" style="edgeStyle=orthogonalEdgeStyle;rounded=1;orthogonalLoop=1;jettySize=auto;html=1;exitX=0;exitY=0.5;exitDx=0;exitDy=0;entryX=1;entryY=0.5;entryDx=0;entryDy=0;curved=0;fillColor=#f5f5f5;strokeColor=#666666;" parent="KfcNOS4kfVk2N-4z_1Hx-20" source="KfcNOS4kfVk2N-4z_1Hx-156" target="KfcNOS4kfVk2N-4z_1Hx-6" edge="1">
          <mxGeometry relative="1" as="geometry" />
        </mxCell>
        <mxCell id="KfcNOS4kfVk2N-4z_1Hx-39" value="Mechanical" style="swimlane;whiteSpace=wrap;html=1;fontFamily=Roboto;fontSource=https%3A%2F%2Ffonts.googleapis.com%2Fcss%3Ffamily%3DRoboto;fontStyle=0;fillColor=#f8cecc;strokeColor=#b85450;" parent="1" vertex="1">
          <mxGeometry x="570" y="700" width="580" height="115" as="geometry" />
        </mxCell>
        <mxCell id="KfcNOS4kfVk2N-4z_1Hx-40" style="edgeStyle=orthogonalEdgeStyle;rounded=0;orthogonalLoop=1;jettySize=auto;html=1;exitX=0;exitY=0.5;exitDx=0;exitDy=0;entryX=1;entryY=0.5;entryDx=0;entryDy=0;" parent="KfcNOS4kfVk2N-4z_1Hx-39" edge="1">
          <mxGeometry relative="1" as="geometry">
            <mxPoint x="170" y="110" as="sourcePoint" />
          </mxGeometry>
        </mxCell>
        <mxCell id="KfcNOS4kfVk2N-4z_1Hx-41" style="edgeStyle=orthogonalEdgeStyle;rounded=0;orthogonalLoop=1;jettySize=auto;html=1;exitX=0;exitY=0.5;exitDx=0;exitDy=0;entryX=1;entryY=0.5;entryDx=0;entryDy=0;" parent="KfcNOS4kfVk2N-4z_1Hx-39" edge="1">
          <mxGeometry relative="1" as="geometry">
            <mxPoint x="170" y="110" as="sourcePoint" />
          </mxGeometry>
        </mxCell>
        <mxCell id="KfcNOS4kfVk2N-4z_1Hx-43" style="edgeStyle=orthogonalEdgeStyle;rounded=0;orthogonalLoop=1;jettySize=auto;html=1;exitX=0;exitY=0.5;exitDx=0;exitDy=0;entryX=1;entryY=0.5;entryDx=0;entryDy=0;" parent="KfcNOS4kfVk2N-4z_1Hx-39" edge="1">
          <mxGeometry relative="1" as="geometry">
            <mxPoint x="130" y="70" as="targetPoint" />
          </mxGeometry>
        </mxCell>
        <mxCell id="KfcNOS4kfVk2N-4z_1Hx-45" style="edgeStyle=orthogonalEdgeStyle;rounded=0;orthogonalLoop=1;jettySize=auto;html=1;exitX=0;exitY=0.5;exitDx=0;exitDy=0;entryX=1;entryY=0.5;entryDx=0;entryDy=0;" parent="KfcNOS4kfVk2N-4z_1Hx-39" edge="1">
          <mxGeometry relative="1" as="geometry">
            <mxPoint x="270" y="70" as="targetPoint" />
          </mxGeometry>
        </mxCell>
        <mxCell id="KfcNOS4kfVk2N-4z_1Hx-168" style="edgeStyle=orthogonalEdgeStyle;rounded=1;orthogonalLoop=1;jettySize=auto;html=1;exitX=0;exitY=0.5;exitDx=0;exitDy=0;entryX=1;entryY=0.5;entryDx=0;entryDy=0;curved=0;fillColor=#f5f5f5;strokeColor=#666666;" parent="KfcNOS4kfVk2N-4z_1Hx-39" source="KfcNOS4kfVk2N-4z_1Hx-163" target="KfcNOS4kfVk2N-4z_1Hx-164" edge="1">
          <mxGeometry relative="1" as="geometry" />
        </mxCell>
        <mxCell id="KfcNOS4kfVk2N-4z_1Hx-163" value="HE standard designs (ie: level shifter)" style="rounded=0;whiteSpace=wrap;html=1;fontFamily=Roboto;fontSource=https%3A%2F%2Ffonts.googleapis.com%2Fcss%3Ffamily%3DRoboto;fillColor=#f8cecc;gradientColor=#ea6b66;strokeColor=#b85450;" parent="KfcNOS4kfVk2N-4z_1Hx-39" vertex="1">
          <mxGeometry x="450" y="40" width="120" height="60" as="geometry" />
        </mxCell>
        <mxCell id="KfcNOS4kfVk2N-4z_1Hx-164" value="MECH WORKFLOW" style="rounded=0;whiteSpace=wrap;html=1;fontFamily=Roboto;fontSource=https%3A%2F%2Ffonts.googleapis.com%2Fcss%3Ffamily%3DRoboto;fillColor=#647687;fontColor=#ffffff;strokeColor=#314354;" parent="KfcNOS4kfVk2N-4z_1Hx-39" vertex="1">
          <mxGeometry x="170" y="40" width="260" height="60" as="geometry" />
        </mxCell>
        <mxCell id="KfcNOS4kfVk2N-4z_1Hx-169" value="&lt;div&gt;Enclosure &amp;amp; parts assembly&lt;br&gt;&lt;/div&gt;" style="rounded=0;whiteSpace=wrap;html=1;fontFamily=Roboto;fontSource=https%3A%2F%2Ffonts.googleapis.com%2Fcss%3Ffamily%3DRoboto;fillColor=#f5f5f5;fontColor=#333333;strokeColor=#666666;" parent="KfcNOS4kfVk2N-4z_1Hx-39" vertex="1">
          <mxGeometry x="10" y="40" width="120" height="60" as="geometry" />
        </mxCell>
        <mxCell id="KfcNOS4kfVk2N-4z_1Hx-170" style="edgeStyle=orthogonalEdgeStyle;rounded=1;orthogonalLoop=1;jettySize=auto;html=1;exitX=0;exitY=0.5;exitDx=0;exitDy=0;entryX=1;entryY=0.5;entryDx=0;entryDy=0;curved=0;fillColor=#f5f5f5;strokeColor=#666666;" parent="KfcNOS4kfVk2N-4z_1Hx-39" source="KfcNOS4kfVk2N-4z_1Hx-164" target="KfcNOS4kfVk2N-4z_1Hx-169" edge="1">
          <mxGeometry relative="1" as="geometry" />
        </mxCell>
        <mxCell id="KfcNOS4kfVk2N-4z_1Hx-56" value="" style="endArrow=classic;html=1;rounded=0;strokeColor=#6666FF;fontFamily=Roboto;fontSource=https%3A%2F%2Ffonts.googleapis.com%2Fcss%3Ffamily%3DRoboto;" parent="1" edge="1">
          <mxGeometry width="50" height="50" relative="1" as="geometry">
            <mxPoint x="47.5" y="24.5" as="sourcePoint" />
            <mxPoint x="17.5" y="24.5" as="targetPoint" />
          </mxGeometry>
        </mxCell>
        <mxCell id="KfcNOS4kfVk2N-4z_1Hx-57" value="GitHub Actions CI / CD" style="text;html=1;strokeColor=none;fillColor=none;align=left;verticalAlign=middle;whiteSpace=wrap;rounded=0;fontFamily=Roboto;fontSource=https%3A%2F%2Ffonts.googleapis.com%2Fcss%3Ffamily%3DRoboto;" parent="1" vertex="1">
          <mxGeometry x="52.5" y="10" width="127.5" height="30" as="geometry" />
        </mxCell>
        <mxCell id="KfcNOS4kfVk2N-4z_1Hx-64" value="Embedded Software (ES): C Code" style="swimlane;whiteSpace=wrap;html=1;fontFamily=Roboto;fontSource=https%3A%2F%2Ffonts.googleapis.com%2Fcss%3Ffamily%3DRoboto;fontStyle=0;fillColor=#dae8fc;strokeColor=#6c8ebf;" parent="1" vertex="1">
          <mxGeometry x="710" y="10" width="440" height="110" as="geometry" />
        </mxCell>
        <mxCell id="KfcNOS4kfVk2N-4z_1Hx-66" value="&lt;div&gt;STM32 development&lt;br&gt;&lt;/div&gt;&lt;div&gt;(ie: wheel speed)&lt;br&gt;&lt;/div&gt;" style="rounded=0;whiteSpace=wrap;html=1;fontFamily=Roboto;fontSource=https%3A%2F%2Ffonts.googleapis.com%2Fcss%3Ffamily%3DRoboto;fillColor=#f5f5f5;fontColor=#333333;strokeColor=#666666;" parent="KfcNOS4kfVk2N-4z_1Hx-64" vertex="1">
          <mxGeometry x="10" y="40" width="120" height="60" as="geometry" />
        </mxCell>
        <mxCell id="KfcNOS4kfVk2N-4z_1Hx-68" value="&lt;div&gt;Systems template development &amp;amp; conventions&lt;br&gt;&lt;/div&gt;" style="rounded=0;whiteSpace=wrap;html=1;fontFamily=Roboto;fontSource=https%3A%2F%2Ffonts.googleapis.com%2Fcss%3Ffamily%3DRoboto;fillColor=#f8cecc;strokeColor=#b85450;gradientColor=#ea6b66;" parent="KfcNOS4kfVk2N-4z_1Hx-64" vertex="1">
          <mxGeometry x="310" y="40" width="120" height="60" as="geometry" />
        </mxCell>
        <mxCell id="KfcNOS4kfVk2N-4z_1Hx-69" style="edgeStyle=orthogonalEdgeStyle;rounded=1;orthogonalLoop=1;jettySize=auto;html=1;exitX=0;exitY=0.5;exitDx=0;exitDy=0;entryX=1;entryY=0.5;entryDx=0;entryDy=0;strokeColor=#6666FF;fillColor=#e1d5e7;curved=0;fontFamily=Roboto;fontSource=https%3A%2F%2Ffonts.googleapis.com%2Fcss%3Ffamily%3DRoboto;" parent="KfcNOS4kfVk2N-4z_1Hx-64" source="KfcNOS4kfVk2N-4z_1Hx-68" target="KfcNOS4kfVk2N-4z_1Hx-66" edge="1">
          <mxGeometry relative="1" as="geometry" />
        </mxCell>
        <mxCell id="KfcNOS4kfVk2N-4z_1Hx-98" style="edgeStyle=orthogonalEdgeStyle;rounded=1;orthogonalLoop=1;jettySize=auto;html=1;exitX=0;exitY=0.5;exitDx=0;exitDy=0;entryX=1;entryY=0.75;entryDx=0;entryDy=0;strokeColor=#6666FF;curved=0;fontFamily=Roboto;fontSource=https%3A%2F%2Ffonts.googleapis.com%2Fcss%3Ffamily%3DRoboto;" parent="1" source="KfcNOS4kfVk2N-4z_1Hx-11" target="KfcNOS4kfVk2N-4z_1Hx-66" edge="1">
          <mxGeometry relative="1" as="geometry" />
        </mxCell>
        <mxCell id="KfcNOS4kfVk2N-4z_1Hx-120" value="ES: Software Integration" style="swimlane;whiteSpace=wrap;html=1;fontFamily=Roboto;fontSource=https%3A%2F%2Ffonts.googleapis.com%2Fcss%3Ffamily%3DRoboto;fontStyle=0;fillColor=#dae8fc;strokeColor=#6c8ebf;" parent="1" vertex="1">
          <mxGeometry x="150" y="130" width="300" height="110" as="geometry" />
        </mxCell>
        <mxCell id="KfcNOS4kfVk2N-4z_1Hx-121" style="edgeStyle=orthogonalEdgeStyle;rounded=0;orthogonalLoop=1;jettySize=auto;html=1;exitX=0;exitY=0.5;exitDx=0;exitDy=0;entryX=1;entryY=0.5;entryDx=0;entryDy=0;" parent="KfcNOS4kfVk2N-4z_1Hx-120" edge="1">
          <mxGeometry relative="1" as="geometry">
            <mxPoint x="170" y="110" as="sourcePoint" />
          </mxGeometry>
        </mxCell>
        <mxCell id="KfcNOS4kfVk2N-4z_1Hx-122" style="edgeStyle=orthogonalEdgeStyle;rounded=0;orthogonalLoop=1;jettySize=auto;html=1;exitX=0;exitY=0.5;exitDx=0;exitDy=0;entryX=1;entryY=0.5;entryDx=0;entryDy=0;" parent="KfcNOS4kfVk2N-4z_1Hx-120" edge="1">
          <mxGeometry relative="1" as="geometry">
            <mxPoint x="170" y="110" as="sourcePoint" />
          </mxGeometry>
        </mxCell>
        <mxCell id="KfcNOS4kfVk2N-4z_1Hx-141" style="edgeStyle=orthogonalEdgeStyle;rounded=0;orthogonalLoop=1;jettySize=auto;html=1;exitX=0;exitY=0.5;exitDx=0;exitDy=0;entryX=1;entryY=0.5;entryDx=0;entryDy=0;strokeColor=#6666FF;fontFamily=Roboto;fontSource=https%3A%2F%2Ffonts.googleapis.com%2Fcss%3Ffamily%3DRoboto;" parent="KfcNOS4kfVk2N-4z_1Hx-120" source="KfcNOS4kfVk2N-4z_1Hx-126" target="KfcNOS4kfVk2N-4z_1Hx-136" edge="1">
          <mxGeometry relative="1" as="geometry" />
        </mxCell>
        <mxCell id="KfcNOS4kfVk2N-4z_1Hx-126" value="&lt;div&gt;Complete software integration&lt;br&gt;&lt;/div&gt;" style="rounded=0;whiteSpace=wrap;html=1;fontFamily=Roboto;fontSource=https%3A%2F%2Ffonts.googleapis.com%2Fcss%3Ffamily%3DRoboto;fillColor=#f5f5f5;fontColor=#333333;strokeColor=#666666;" parent="KfcNOS4kfVk2N-4z_1Hx-120" vertex="1">
          <mxGeometry x="170" y="40" width="120" height="60" as="geometry" />
        </mxCell>
        <mxCell id="KfcNOS4kfVk2N-4z_1Hx-136" value="Software release" style="rounded=0;whiteSpace=wrap;html=1;fontFamily=Roboto;fontSource=https%3A%2F%2Ffonts.googleapis.com%2Fcss%3Ffamily%3DRoboto;fillColor=#ffcd28;gradientColor=#ffa500;strokeColor=#d79b00;" parent="KfcNOS4kfVk2N-4z_1Hx-120" vertex="1">
          <mxGeometry x="10" y="40" width="120" height="60" as="geometry" />
        </mxCell>
        <mxCell id="KfcNOS4kfVk2N-4z_1Hx-107" style="edgeStyle=orthogonalEdgeStyle;rounded=1;orthogonalLoop=1;jettySize=auto;html=1;exitX=0.5;exitY=1;exitDx=0;exitDy=0;entryX=1;entryY=0.5;entryDx=0;entryDy=0;curved=0;fillColor=#f5f5f5;strokeColor=#666666;fontFamily=Roboto;fontSource=https%3A%2F%2Ffonts.googleapis.com%2Fcss%3Ffamily%3DRoboto;" parent="1" source="KfcNOS4kfVk2N-4z_1Hx-66" target="KfcNOS4kfVk2N-4z_1Hx-130" edge="1">
          <mxGeometry relative="1" as="geometry">
            <mxPoint x="679.9999999999998" y="160" as="targetPoint" />
          </mxGeometry>
        </mxCell>
        <mxCell id="KfcNOS4kfVk2N-4z_1Hx-130" value="HIL data collection (ie: rad/s data)" style="rounded=0;whiteSpace=wrap;html=1;fontFamily=Roboto;fontSource=https%3A%2F%2Ffonts.googleapis.com%2Fcss%3Ffamily%3DRoboto;fillColor=#f5f5f5;strokeColor=#666666;fontColor=#333333;" parent="1" vertex="1">
          <mxGeometry x="640" y="240" width="120" height="60" as="geometry" />
        </mxCell>
        <mxCell id="KfcNOS4kfVk2N-4z_1Hx-109" style="edgeStyle=orthogonalEdgeStyle;rounded=1;orthogonalLoop=1;jettySize=auto;html=1;exitX=0;exitY=0.5;exitDx=0;exitDy=0;entryX=1;entryY=0.25;entryDx=0;entryDy=0;curved=0;fillColor=#f5f5f5;strokeColor=#666666;fontFamily=Roboto;fontSource=https%3A%2F%2Ffonts.googleapis.com%2Fcss%3Ffamily%3DRoboto;" parent="1" source="KfcNOS4kfVk2N-4z_1Hx-130" target="KfcNOS4kfVk2N-4z_1Hx-9" edge="1">
          <mxGeometry relative="1" as="geometry">
            <mxPoint x="559.9999999999998" y="160" as="sourcePoint" />
          </mxGeometry>
        </mxCell>
        <mxCell id="KfcNOS4kfVk2N-4z_1Hx-131" style="edgeStyle=orthogonalEdgeStyle;rounded=1;orthogonalLoop=1;jettySize=auto;html=1;exitX=0;exitY=0.5;exitDx=0;exitDy=0;entryX=1;entryY=0.75;entryDx=0;entryDy=0;curved=0;strokeColor=#6666FF;fontFamily=Roboto;fontSource=https%3A%2F%2Ffonts.googleapis.com%2Fcss%3Ffamily%3DRoboto;" parent="1" source="KfcNOS4kfVk2N-4z_1Hx-9" target="KfcNOS4kfVk2N-4z_1Hx-126" edge="1">
          <mxGeometry relative="1" as="geometry" />
        </mxCell>
        <mxCell id="KfcNOS4kfVk2N-4z_1Hx-128" style="edgeStyle=orthogonalEdgeStyle;rounded=1;orthogonalLoop=1;jettySize=auto;html=1;exitX=0;exitY=0.5;exitDx=0;exitDy=0;entryX=1;entryY=0.5;entryDx=0;entryDy=0;curved=0;strokeColor=#6666FF;fontFamily=Roboto;fontSource=https%3A%2F%2Ffonts.googleapis.com%2Fcss%3Ffamily%3DRoboto;" parent="1" source="KfcNOS4kfVk2N-4z_1Hx-11" target="KfcNOS4kfVk2N-4z_1Hx-126" edge="1">
          <mxGeometry relative="1" as="geometry">
            <Array as="points">
              <mxPoint x="870" y="200" />
              <mxPoint x="870" y="200" />
            </Array>
          </mxGeometry>
        </mxCell>
        <mxCell id="KfcNOS4kfVk2N-4z_1Hx-129" style="edgeStyle=orthogonalEdgeStyle;rounded=1;orthogonalLoop=1;jettySize=auto;html=1;exitX=0;exitY=0.5;exitDx=0;exitDy=0;entryX=1;entryY=0.25;entryDx=0;entryDy=0;curved=0;strokeColor=#6666FF;fontFamily=Roboto;fontSource=https%3A%2F%2Ffonts.googleapis.com%2Fcss%3Ffamily%3DRoboto;" parent="1" source="KfcNOS4kfVk2N-4z_1Hx-66" target="KfcNOS4kfVk2N-4z_1Hx-126" edge="1">
          <mxGeometry relative="1" as="geometry" />
        </mxCell>
        <mxCell id="KfcNOS4kfVk2N-4z_1Hx-145" style="edgeStyle=orthogonalEdgeStyle;rounded=1;orthogonalLoop=1;jettySize=auto;html=1;exitX=0;exitY=0.5;exitDx=0;exitDy=0;entryX=0.5;entryY=1;entryDx=0;entryDy=0;fillColor=#f5f5f5;strokeColor=#666666;curved=0;fontFamily=Roboto;fontSource=https%3A%2F%2Ffonts.googleapis.com%2Fcss%3Ffamily%3DRoboto;" parent="1" source="KfcNOS4kfVk2N-4z_1Hx-143" target="KfcNOS4kfVk2N-4z_1Hx-136" edge="1">
          <mxGeometry relative="1" as="geometry" />
        </mxCell>
        <mxCell id="KfcNOS4kfVk2N-4z_1Hx-143" value="SIL / HIL Testing" style="rounded=0;whiteSpace=wrap;html=1;fontFamily=Roboto;fontSource=https%3A%2F%2Ffonts.googleapis.com%2Fcss%3Ffamily%3DRoboto;fillColor=#f5f5f5;strokeColor=#666666;fontColor=#333333;" parent="1" vertex="1">
          <mxGeometry x="240" y="260" width="120" height="60" as="geometry" />
        </mxCell>
        <mxCell id="KfcNOS4kfVk2N-4z_1Hx-144" style="edgeStyle=orthogonalEdgeStyle;rounded=1;orthogonalLoop=1;jettySize=auto;html=1;exitX=0.5;exitY=1;exitDx=0;exitDy=0;entryX=1;entryY=0.25;entryDx=0;entryDy=0;fillColor=#f5f5f5;strokeColor=#6666FF;curved=0;fontFamily=Roboto;fontSource=https%3A%2F%2Ffonts.googleapis.com%2Fcss%3Ffamily%3DRoboto;" parent="1" source="KfcNOS4kfVk2N-4z_1Hx-126" target="KfcNOS4kfVk2N-4z_1Hx-143" edge="1">
          <mxGeometry relative="1" as="geometry" />
        </mxCell>
        <mxCell id="KfcNOS4kfVk2N-4z_1Hx-146" value="" style="endArrow=none;html=1;rounded=0;dashed=1;dashPattern=1 2;strokeWidth=3;fontFamily=Roboto;fontSource=https%3A%2F%2Ffonts.googleapis.com%2Fcss%3Ffamily%3DRoboto;fillColor=#f5f5f5;strokeColor=#CCCCCC;" parent="1" edge="1">
          <mxGeometry width="50" height="50" relative="1" as="geometry">
            <mxPoint x="10" y="490" as="sourcePoint" />
            <mxPoint x="1160" y="490" as="targetPoint" />
          </mxGeometry>
        </mxCell>
        <mxCell id="KfcNOS4kfVk2N-4z_1Hx-151" style="edgeStyle=orthogonalEdgeStyle;rounded=1;orthogonalLoop=1;jettySize=auto;html=1;exitX=0;exitY=0.5;exitDx=0;exitDy=0;entryX=0.5;entryY=0;entryDx=0;entryDy=0;fontFamily=Roboto;fontSource=https%3A%2F%2Ffonts.googleapis.com%2Fcss%3Ffamily%3DRoboto;curved=0;fillColor=#d5e8d4;gradientColor=#97d077;strokeColor=#82b366;" parent="1" source="KfcNOS4kfVk2N-4z_1Hx-136" target="KfcNOS4kfVk2N-4z_1Hx-47" edge="1">
          <mxGeometry relative="1" as="geometry" />
        </mxCell>
        <mxCell id="KfcNOS4kfVk2N-4z_1Hx-47" value="Full integration" style="rounded=0;whiteSpace=wrap;html=1;fontFamily=Roboto;fontSource=https%3A%2F%2Ffonts.googleapis.com%2Fcss%3Ffamily%3DRoboto;fillColor=#d5e8d4;strokeColor=#82b366;gradientColor=#97d077;" parent="1" vertex="1">
          <mxGeometry x="10" y="460" width="120" height="60" as="geometry" />
        </mxCell>
        <mxCell id="KfcNOS4kfVk2N-4z_1Hx-161" style="edgeStyle=orthogonalEdgeStyle;rounded=1;orthogonalLoop=1;jettySize=auto;html=1;exitX=0.5;exitY=0;exitDx=0;exitDy=0;entryX=1;entryY=0.5;entryDx=0;entryDy=0;fillColor=#f5f5f5;strokeColor=#666666;curved=0;" parent="1" source="KfcNOS4kfVk2N-4z_1Hx-6" target="KfcNOS4kfVk2N-4z_1Hx-143" edge="1">
          <mxGeometry relative="1" as="geometry">
            <Array as="points">
              <mxPoint x="800" y="540" />
              <mxPoint x="400" y="540" />
              <mxPoint x="400" y="290" />
            </Array>
          </mxGeometry>
        </mxCell>
        <mxCell id="KfcNOS4kfVk2N-4z_1Hx-172" style="edgeStyle=orthogonalEdgeStyle;rounded=1;orthogonalLoop=1;jettySize=auto;html=1;exitX=0;exitY=0.5;exitDx=0;exitDy=0;entryX=1;entryY=0.25;entryDx=0;entryDy=0;curved=0;fillColor=#f5f5f5;strokeColor=#666666;" parent="1" source="KfcNOS4kfVk2N-4z_1Hx-6" target="KfcNOS4kfVk2N-4z_1Hx-169" edge="1">
          <mxGeometry relative="1" as="geometry">
            <Array as="points">
              <mxPoint x="720" y="640" />
              <mxPoint x="720" y="755" />
            </Array>
          </mxGeometry>
        </mxCell>
        <mxCell id="KfcNOS4kfVk2N-4z_1Hx-176" value="" style="endArrow=classic;html=1;rounded=0;fontFamily=Roboto;fontSource=https%3A%2F%2Ffonts.googleapis.com%2Fcss%3Ffamily%3DRoboto;fillColor=#f5f5f5;strokeColor=#666666;" parent="1" edge="1">
          <mxGeometry width="50" height="50" relative="1" as="geometry">
            <mxPoint x="47.5" y="54.5" as="sourcePoint" />
            <mxPoint x="17.5" y="54.5" as="targetPoint" />
          </mxGeometry>
        </mxCell>
        <mxCell id="KYEBPbytc8NpeljbwfnL-12" value="Mechanical" style="swimlane;whiteSpace=wrap;html=1;fontFamily=Roboto;fontSource=https%3A%2F%2Ffonts.googleapis.com%2Fcss%3Ffamily%3DRoboto;fontStyle=0;fillColor=#f8cecc;strokeColor=#b85450;" vertex="1" parent="1">
          <mxGeometry x="150" y="567.5" width="300" height="115" as="geometry" />
        </mxCell>
        <mxCell id="KYEBPbytc8NpeljbwfnL-13" style="edgeStyle=orthogonalEdgeStyle;rounded=0;orthogonalLoop=1;jettySize=auto;html=1;exitX=0;exitY=0.5;exitDx=0;exitDy=0;entryX=1;entryY=0.5;entryDx=0;entryDy=0;" edge="1" parent="KYEBPbytc8NpeljbwfnL-12">
          <mxGeometry relative="1" as="geometry">
            <mxPoint x="170" y="110" as="sourcePoint" />
          </mxGeometry>
        </mxCell>
        <mxCell id="KYEBPbytc8NpeljbwfnL-14" style="edgeStyle=orthogonalEdgeStyle;rounded=0;orthogonalLoop=1;jettySize=auto;html=1;exitX=0;exitY=0.5;exitDx=0;exitDy=0;entryX=1;entryY=0.5;entryDx=0;entryDy=0;" edge="1" parent="KYEBPbytc8NpeljbwfnL-12">
          <mxGeometry relative="1" as="geometry">
            <mxPoint x="170" y="110" as="sourcePoint" />
          </mxGeometry>
        </mxCell>
        <mxCell id="KYEBPbytc8NpeljbwfnL-15" style="edgeStyle=orthogonalEdgeStyle;rounded=0;orthogonalLoop=1;jettySize=auto;html=1;exitX=0;exitY=0.5;exitDx=0;exitDy=0;entryX=1;entryY=0.5;entryDx=0;entryDy=0;" edge="1" parent="KYEBPbytc8NpeljbwfnL-12">
          <mxGeometry relative="1" as="geometry">
            <mxPoint x="130" y="70" as="targetPoint" />
          </mxGeometry>
        </mxCell>
        <mxCell id="KYEBPbytc8NpeljbwfnL-16" style="edgeStyle=orthogonalEdgeStyle;rounded=0;orthogonalLoop=1;jettySize=auto;html=1;exitX=0;exitY=0.5;exitDx=0;exitDy=0;entryX=1;entryY=0.5;entryDx=0;entryDy=0;" edge="1" parent="KYEBPbytc8NpeljbwfnL-12">
          <mxGeometry relative="1" as="geometry">
            <mxPoint x="270" y="70" as="targetPoint" />
          </mxGeometry>
        </mxCell>
        <mxCell id="KYEBPbytc8NpeljbwfnL-17" style="edgeStyle=orthogonalEdgeStyle;rounded=1;orthogonalLoop=1;jettySize=auto;html=1;exitX=0;exitY=0.5;exitDx=0;exitDy=0;entryX=1;entryY=0.5;entryDx=0;entryDy=0;curved=0;fillColor=#f5f5f5;strokeColor=#666666;" edge="1" parent="KYEBPbytc8NpeljbwfnL-12" target="KYEBPbytc8NpeljbwfnL-19">
          <mxGeometry relative="1" as="geometry">
            <mxPoint x="450" y="70" as="sourcePoint" />
          </mxGeometry>
        </mxCell>
        <mxCell id="KYEBPbytc8NpeljbwfnL-21" style="edgeStyle=orthogonalEdgeStyle;rounded=1;orthogonalLoop=1;jettySize=auto;html=1;exitX=0;exitY=0.5;exitDx=0;exitDy=0;entryX=1;entryY=0.5;entryDx=0;entryDy=0;curved=0;fillColor=#f5f5f5;strokeColor=#666666;" edge="1" parent="KYEBPbytc8NpeljbwfnL-12" target="KYEBPbytc8NpeljbwfnL-20">
          <mxGeometry relative="1" as="geometry">
            <mxPoint x="170" y="70" as="sourcePoint" />
          </mxGeometry>
        </mxCell>
        <mxCell id="KfcNOS4kfVk2N-4z_1Hx-171" value="&lt;div&gt;Complete hardware integration&lt;br&gt;&lt;/div&gt;" style="rounded=0;whiteSpace=wrap;html=1;fontFamily=Roboto;fontSource=https%3A%2F%2Ffonts.googleapis.com%2Fcss%3Ffamily%3DRoboto;fillColor=#f5f5f5;fontColor=#333333;strokeColor=#666666;" parent="KYEBPbytc8NpeljbwfnL-12" vertex="1">
          <mxGeometry x="170" y="42.5" width="120" height="60" as="geometry" />
        </mxCell>
        <mxCell id="KfcNOS4kfVk2N-4z_1Hx-153" value="Hardware release" style="rounded=0;whiteSpace=wrap;html=1;fontFamily=Roboto;fontSource=https%3A%2F%2Ffonts.googleapis.com%2Fcss%3Ffamily%3DRoboto;fillColor=#ffcd28;gradientColor=#ffa500;strokeColor=#d79b00;" parent="KYEBPbytc8NpeljbwfnL-12" vertex="1">
          <mxGeometry x="10" y="42.5" width="120" height="60" as="geometry" />
        </mxCell>
        <mxCell id="KfcNOS4kfVk2N-4z_1Hx-174" style="edgeStyle=orthogonalEdgeStyle;rounded=0;orthogonalLoop=1;jettySize=auto;html=1;exitX=0;exitY=0.5;exitDx=0;exitDy=0;entryX=1;entryY=0.5;entryDx=0;entryDy=0;fillColor=#f5f5f5;strokeColor=#666666;" parent="KYEBPbytc8NpeljbwfnL-12" source="KfcNOS4kfVk2N-4z_1Hx-171" target="KfcNOS4kfVk2N-4z_1Hx-153" edge="1">
          <mxGeometry relative="1" as="geometry" />
        </mxCell>
        <mxCell id="KfcNOS4kfVk2N-4z_1Hx-155" style="edgeStyle=orthogonalEdgeStyle;rounded=1;orthogonalLoop=1;jettySize=auto;html=1;exitX=0;exitY=0.5;exitDx=0;exitDy=0;entryX=0.5;entryY=1;entryDx=0;entryDy=0;curved=0;fillColor=#d5e8d4;gradientColor=#97d077;strokeColor=#82b366;" parent="1" source="KfcNOS4kfVk2N-4z_1Hx-153" target="KfcNOS4kfVk2N-4z_1Hx-47" edge="1">
          <mxGeometry relative="1" as="geometry" />
        </mxCell>
        <mxCell id="KfcNOS4kfVk2N-4z_1Hx-173" style="edgeStyle=orthogonalEdgeStyle;rounded=1;orthogonalLoop=1;jettySize=auto;html=1;exitX=0.5;exitY=0;exitDx=0;exitDy=0;entryX=1;entryY=0.75;entryDx=0;entryDy=0;curved=0;fillColor=#f5f5f5;strokeColor=#666666;" parent="1" source="KfcNOS4kfVk2N-4z_1Hx-171" target="KfcNOS4kfVk2N-4z_1Hx-143" edge="1">
          <mxGeometry relative="1" as="geometry">
            <mxPoint x="360" y="350" as="targetPoint" />
          </mxGeometry>
        </mxCell>
        <mxCell id="KfcNOS4kfVk2N-4z_1Hx-175" style="edgeStyle=orthogonalEdgeStyle;rounded=1;orthogonalLoop=1;jettySize=auto;html=1;exitX=0;exitY=0.5;exitDx=0;exitDy=0;entryX=1;entryY=0.75;entryDx=0;entryDy=0;curved=0;fillColor=#f5f5f5;strokeColor=#666666;" parent="1" source="KfcNOS4kfVk2N-4z_1Hx-169" target="KfcNOS4kfVk2N-4z_1Hx-171" edge="1">
          <mxGeometry relative="1" as="geometry" />
        </mxCell>
        <mxCell id="KYEBPbytc8NpeljbwfnL-22" style="edgeStyle=orthogonalEdgeStyle;rounded=0;orthogonalLoop=1;jettySize=auto;html=1;exitX=0;exitY=0.25;exitDx=0;exitDy=0;entryX=1;entryY=0.25;entryDx=0;entryDy=0;fillColor=#f5f5f5;strokeColor=#666666;" edge="1" parent="1" source="KfcNOS4kfVk2N-4z_1Hx-6" target="KfcNOS4kfVk2N-4z_1Hx-171">
          <mxGeometry relative="1" as="geometry" />
        </mxCell>
      </root>
    </mxGraphModel>
  </diagram>
</mxfile>
